<svg width="77" height="80" viewBox="0 0 77 80" fill="none" xmlns="http://www.w3.org/2000/svg">
<path d="M42.3177 19.4509L26.2319 23.7222C20.3972 25.2715 17.9154 29.5591 19.484 35.3602L24.7965 55.008C26.3908 60.9042 30.6828 63.3116 36.5175 61.7623L52.6033 57.491C58.5321 55.9167 60.9385 51.7306 59.3442 45.8344L54.0317 26.1867C52.4632 20.3856 48.2465 17.8766 42.3177 19.4509Z" fill="url(#paint0_linear_1_25)"/>
<g filter="url(#filter0_f_1_25)">
<rect width="25.4455" height="21.7173" rx="10.8586" transform="matrix(-0.261015 -0.965335 0.966507 -0.256639 31.3102 54.9081)" fill="#8237FF" fill-opacity="0.5"/>
</g>
<g filter="url(#filter1_b_1_25)">
<path d="M57.4444 29.618H40.7911C34.7506 29.618 31.2335 33.123 31.2335 39.1287V59.4696C31.2335 65.5738 34.7506 69 40.7911 69H57.4444C63.5823 69 67 65.5738 67 59.4696V39.1287C67 33.123 63.5823 29.618 57.4444 29.618Z" fill="#BA90FF" fill-opacity="0.35"/>
<path d="M57.4444 29.118H40.7911C37.6749 29.118 35.1453 30.0238 33.3944 31.7669C31.6431 33.5102 30.7335 36.0286 30.7335 39.1287V59.4696C30.7335 62.6169 31.6421 65.1417 33.3952 66.879C35.1476 68.6156 37.6779 69.5 40.7911 69.5H57.4444C60.6044 69.5 63.1361 68.6166 64.8772 66.8776C66.6185 65.1386 67.5 62.6131 67.5 59.4696V39.1287C67.5 36.0325 66.6174 33.5133 64.878 31.7682C63.1383 30.0228 60.6074 29.118 57.4444 29.118Z" stroke="url(#paint1_linear_1_25)" stroke-linecap="round" stroke-linejoin="round"/>
</g>
<g filter="url(#filter2_bd_1_25)">
<mask id="path-5-inside-1_1_25" fill="white">
<path fill-rule="evenodd" clip-rule="evenodd" d="M41.3275 38.7751V38.7948C40.4711 38.7948 39.7776 39.484 39.7776 40.3307C39.7776 41.1774 40.4711 41.8666 41.3275 41.8666H47.2667C48.1231 41.8666 48.8186 41.1774 48.8186 40.309C48.8186 39.4643 48.1231 38.7751 47.2667 38.7751H41.3275ZM56.9058 50.7673H41.3275C40.4711 50.7673 39.7776 50.0781 39.7776 49.2314C39.7776 48.3846 40.4711 47.6935 41.3275 47.6935H56.9058C57.7602 47.6935 58.4557 48.3846 58.4557 49.2314C58.4557 50.0781 57.7602 50.7673 56.9058 50.7673ZM56.9059 59.7659H41.3277C40.7316 59.8447 40.1553 59.5493 39.8374 59.057C39.5195 58.5451 39.5195 57.8953 39.8374 57.403C40.1553 56.891 40.7316 56.6153 41.3277 56.6744H56.9059C57.6988 56.7532 58.2969 57.4227 58.2969 58.23C58.2969 59.0157 57.6988 59.6871 56.9059 59.7659Z"/>
</mask>
<path fill-rule="evenodd" clip-rule="evenodd" d="M41.3275 38.7751V38.7948C40.4711 38.7948 39.7776 39.484 39.7776 40.3307C39.7776 41.1774 40.4711 41.8666 41.3275 41.8666H47.2667C48.1231 41.8666 48.8186 41.1774 48.8186 40.309C48.8186 39.4643 48.1231 38.7751 47.2667 38.7751H41.3275ZM56.9058 50.7673H41.3275C40.4711 50.7673 39.7776 50.0781 39.7776 49.2314C39.7776 48.3846 40.4711 47.6935 41.3275 47.6935H56.9058C57.7602 47.6935 58.4557 48.3846 58.4557 49.2314C58.4557 50.0781 57.7602 50.7673 56.9058 50.7673ZM56.9059 59.7659H41.3277C40.7316 59.8447 40.1553 59.5493 39.8374 59.057C39.5195 58.5451 39.5195 57.8953 39.8374 57.403C40.1553 56.891 40.7316 56.6153 41.3277 56.6744H56.9059C57.6988 56.7532 58.2969 57.4227 58.2969 58.23C58.2969 59.0157 57.6988 59.6871 56.9059 59.7659Z" fill="url(#paint2_linear_1_25)"/>
<path d="M41.3275 38.7948V39.1948H41.7275V38.7948H41.3275ZM41.3275 38.7751V38.3751H40.9275V38.7751H41.3275ZM41.3277 59.7659V59.3659H41.3014L41.2753 59.3694L41.3277 59.7659ZM56.9059 59.7659V60.1659H56.9258L56.9455 60.1639L56.9059 59.7659ZM39.8374 59.057L39.4975 59.2681L39.5014 59.274L39.8374 59.057ZM39.8374 57.403L40.1735 57.62L40.1772 57.614L39.8374 57.403ZM41.3277 56.6744L41.2882 57.0725L41.3079 57.0744H41.3277V56.6744ZM56.9059 56.6744L56.9455 56.2764L56.9258 56.2744H56.9059V56.6744ZM41.7275 38.7948V38.7751H40.9275V38.7948H41.7275ZM40.1776 40.3307C40.1776 39.708 40.6889 39.1948 41.3275 39.1948V38.3948C40.2533 38.3948 39.3776 39.26 39.3776 40.3307H40.1776ZM41.3275 41.4666C40.6889 41.4666 40.1776 40.9534 40.1776 40.3307H39.3776C39.3776 41.4014 40.2533 42.2666 41.3275 42.2666V41.4666ZM47.2667 41.4666H41.3275V42.2666H47.2667V41.4666ZM48.4186 40.309C48.4186 40.9564 47.9023 41.4666 47.2667 41.4666V42.2666C48.344 42.2666 49.2186 41.3984 49.2186 40.309H48.4186ZM47.2667 39.1751C47.9063 39.1751 48.4186 39.6893 48.4186 40.309H49.2186C49.2186 39.2393 48.34 38.3751 47.2667 38.3751V39.1751ZM41.3275 39.1751H47.2667V38.3751H41.3275V39.1751ZM41.3275 51.1673H56.9058V50.3673H41.3275V51.1673ZM39.3776 49.2314C39.3776 50.3021 40.2533 51.1673 41.3275 51.1673V50.3673C40.6889 50.3673 40.1776 49.8541 40.1776 49.2314H39.3776ZM41.3275 47.2935C40.2526 47.2935 39.3776 48.1613 39.3776 49.2314H40.1776C40.1776 48.608 40.6896 48.0935 41.3275 48.0935V47.2935ZM56.9058 47.2935H41.3275V48.0935H56.9058V47.2935ZM58.8557 49.2314C58.8557 48.161 57.9784 47.2935 56.9058 47.2935V48.0935C57.5421 48.0935 58.0557 48.6083 58.0557 49.2314H58.8557ZM56.9058 51.1673C57.9777 51.1673 58.8557 50.3024 58.8557 49.2314H58.0557C58.0557 49.8538 57.5427 50.3673 56.9058 50.3673V51.1673ZM41.3277 60.1659H56.9059V59.3659H41.3277V60.1659ZM39.5014 59.274C39.8965 59.8858 40.6187 60.2631 41.3801 60.1625L41.2753 59.3694C40.8444 59.4263 40.4142 59.2128 40.1734 58.84L39.5014 59.274ZM39.5014 57.186C39.0965 57.8129 39.101 58.6295 39.4976 59.268L40.1772 58.846C39.9379 58.4607 39.9424 57.9777 40.1734 57.62L39.5014 57.186ZM41.3671 56.2764C40.6229 56.2026 39.8979 56.5474 39.4976 57.192L40.1772 57.614C40.4128 57.2347 40.8402 57.0281 41.2882 57.0725L41.3671 56.2764ZM56.9059 56.2744H41.3277V57.0744H56.9059V56.2744ZM58.6969 58.23C58.6969 57.2217 57.9475 56.3759 56.9455 56.2764L56.8664 57.0725C57.45 57.1304 57.8969 57.6236 57.8969 58.23H58.6969ZM56.9455 60.1639C57.9447 60.0647 58.6969 59.2195 58.6969 58.23H57.8969C57.8969 58.8119 57.4529 59.3096 56.8664 59.3679L56.9455 60.1639Z" fill="url(#paint3_linear_1_25)" mask="url(#path-5-inside-1_1_25)"/>
</g>
<defs>
<filter id="filter0_f_1_25" x="0.1241" y="0.191162" width="76.7204" height="79.297" filterUnits="userSpaceOnUse" color-interpolation-filters="sRGB">
<feFlood flood-opacity="0" result="BackgroundImageFix"/>
<feBlend mode="normal" in="SourceGraphic" in2="BackgroundImageFix" result="shape"/>
<feGaussianBlur stdDeviation="13.5" result="effect1_foregroundBlur_1_25"/>
</filter>
<filter id="filter1_b_1_25" x="6.23354" y="4.61798" width="85.7665" height="89.382" filterUnits="userSpaceOnUse" color-interpolation-filters="sRGB">
<feFlood flood-opacity="0" result="BackgroundImageFix"/>
<feGaussianBlur in="BackgroundImageFix" stdDeviation="12"/>
<feComposite in2="SourceAlpha" operator="in" result="effect1_backgroundBlur_1_25"/>
<feBlend mode="normal" in="SourceGraphic" in2="effect1_backgroundBlur_1_25" result="shape"/>
</filter>
<filter id="filter2_bd_1_25" x="24.599" y="23.7751" width="48.8567" height="51.0035" filterUnits="userSpaceOnUse" color-interpolation-filters="sRGB">
<feFlood flood-opacity="0" result="BackgroundImageFix"/>
<feGaussianBlur in="BackgroundImageFix" stdDeviation="7.5"/>
<feComposite in2="SourceAlpha" operator="in" result="effect1_backgroundBlur_1_25"/>
<feColorMatrix in="SourceAlpha" type="matrix" values="0 0 0 0 0 0 0 0 0 0 0 0 0 0 0 0 0 0 127 0" result="hardAlpha"/>
<feOffset dx="5" dy="5"/>
<feGaussianBlur stdDeviation="5"/>
<feColorMatrix type="matrix" values="0 0 0 0 0.577356 0 0 0 0 0.359375 0 0 0 0 0.9375 0 0 0 0.5 0"/>
<feBlend mode="normal" in2="effect1_backgroundBlur_1_25" result="effect2_dropShadow_1_25"/>
<feBlend mode="normal" in="SourceGraphic" in2="effect2_dropShadow_1_25" result="shape"/>
</filter>
<linearGradient id="paint0_linear_1_25" x1="34.2739" y1="21.5868" x2="44.3869" y2="59.6727" gradientUnits="userSpaceOnUse">
<stop stop-color="#BC94FF"/>
<stop offset="1" stop-color="#9F66FF"/>
</linearGradient>
<linearGradient id="paint1_linear_1_25" x1="36.927" y1="34.206" x2="62.4488" y2="62.9134" gradientUnits="userSpaceOnUse">
<stop stop-color="white" stop-opacity="0.25"/>
<stop offset="1" stop-color="white" stop-opacity="0"/>
</linearGradient>
<linearGradient id="paint2_linear_1_25" x1="57.1187" y1="42.5679" x2="36.1098" y2="43.1829" gradientUnits="userSpaceOnUse">
<stop stop-color="white"/>
<stop offset="1" stop-color="white" stop-opacity="0.2"/>
</linearGradient>
<linearGradient id="paint3_linear_1_25" x1="42.6006" y1="41.222" x2="56.2296" y2="56.3765" gradientUnits="userSpaceOnUse">
<stop stop-color="white" stop-opacity="0.25"/>
<stop offset="1" stop-color="white" stop-opacity="0"/>
</linearGradient>
</defs>
</svg>
