<svg width="67" height="66" viewBox="0 0 67 66" fill="none" xmlns="http://www.w3.org/2000/svg">
<rect x="5.5" y="5" width="56" height="56" rx="28" fill="#F4EBFF"/>
<path d="M30 39.4167H23.5833M27.0833 33H21.8333M30 26.5833H24.1667M39.3333 22.5L31.6375 33.2742C31.2969 33.7511 31.1266 33.9895 31.1339 34.1883C31.1404 34.3614 31.2234 34.5226 31.3605 34.6285C31.5179 34.75 31.811 34.75 32.397 34.75H38.1667L37 43.5L44.6958 32.7258C45.0365 32.2489 45.2068 32.0105 45.1994 31.8117C45.193 31.6386 45.11 31.4774 44.9729 31.3715C44.8154 31.25 44.5224 31.25 43.9364 31.25H38.1667L39.3333 22.5Z" stroke="#7F56D9" stroke-width="2" stroke-linecap="round" stroke-linejoin="round"/>
<rect x="5.5" y="5" width="56" height="56" rx="28" stroke="#F9F5FF" stroke-width="10"/>
</svg>
