<svg width="124" height="80" viewBox="0 0 124 80" fill="none" xmlns="http://www.w3.org/2000/svg">
<path d="M44.9572 19.4509L26.559 23.7222C19.8855 25.2715 17.047 29.5592 18.841 35.3603L24.9172 55.008C26.7407 60.9042 31.6497 63.3116 38.3232 61.7623L56.7213 57.491C63.5024 55.9167 66.2547 51.7307 64.4312 45.8345L58.355 26.1867C56.561 20.3856 51.7382 17.8766 44.9572 19.4509Z" fill="url(#paint0_linear_1_46590)"/>
<g filter="url(#filter0_f_1_46590)">
<rect width="25.7112" height="24.6457" rx="12.3228" transform="matrix(-0.295451 -0.955358 0.974094 -0.226145 32.3672 54.9081)" fill="#8237FF" fill-opacity="0.5"/>
</g>
<g filter="url(#filter1_b_1_46590)">
<path d="M62.2583 29.6179H43.2111C36.3022 29.6179 32.2796 33.1229 32.2796 39.1287V59.4695C32.2796 65.5737 36.3022 68.9999 43.2111 68.9999H62.2583C69.2785 68.9999 73.1875 65.5737 73.1875 59.4695V39.1287C73.1875 33.1229 69.2785 29.6179 62.2583 29.6179Z" fill="#BA90FF" fill-opacity="0.35"/>
<path d="M62.2583 29.1179H43.2111C39.6777 29.1179 36.8137 30.0142 34.8263 31.744C32.8292 33.4822 31.7796 36.008 31.7796 39.1287V59.4695C31.7796 62.6374 32.8279 65.1695 34.8271 66.9017C36.8158 68.6247 39.6803 69.4999 43.2111 69.4999H62.2583C65.8429 69.4999 68.7087 68.6255 70.6844 66.9004C72.6704 65.1662 73.6875 62.6331 73.6875 59.4695V39.1287C73.6875 36.0122 72.6691 33.4855 70.6852 31.7453C68.7108 30.0133 65.8456 29.1179 62.2583 29.1179Z" stroke="url(#paint1_linear_1_46590)" stroke-linecap="round" stroke-linejoin="round"/>
</g>
<g filter="url(#filter2_bd_1_46590)">
<mask id="path-5-inside-1_1_46590" fill="white">
<path fill-rule="evenodd" clip-rule="evenodd" d="M43.8246 38.775V38.7947C42.8451 38.7947 42.0519 39.4839 42.0519 40.3306C42.0519 41.1773 42.8451 41.8665 43.8246 41.8665H50.6176C51.5971 41.8665 52.3925 41.1773 52.3925 40.309C52.3925 39.4642 51.5971 38.775 50.6176 38.775H43.8246ZM61.6422 50.7672H43.8246C42.8451 50.7672 42.0519 50.078 42.0519 49.2313C42.0519 48.3846 42.8451 47.6934 43.8246 47.6934H61.6422C62.6195 47.6934 63.4149 48.3846 63.4149 49.2313C63.4149 50.078 62.6195 50.7672 61.6422 50.7672ZM61.6424 59.7658H43.8248C43.143 59.8446 42.4839 59.5492 42.1203 59.057C41.7566 58.545 41.7566 57.8952 42.1203 57.4029C42.4839 56.891 43.143 56.6153 43.8248 56.6744H61.6424C62.5492 56.7531 63.2333 57.4226 63.2333 58.2299C63.2333 59.0156 62.5492 59.6871 61.6424 59.7658Z"/>
</mask>
<path fill-rule="evenodd" clip-rule="evenodd" d="M43.8246 38.775V38.7947C42.8451 38.7947 42.0519 39.4839 42.0519 40.3306C42.0519 41.1773 42.8451 41.8665 43.8246 41.8665H50.6176C51.5971 41.8665 52.3925 41.1773 52.3925 40.309C52.3925 39.4642 51.5971 38.775 50.6176 38.775H43.8246ZM61.6422 50.7672H43.8246C42.8451 50.7672 42.0519 50.078 42.0519 49.2313C42.0519 48.3846 42.8451 47.6934 43.8246 47.6934H61.6422C62.6195 47.6934 63.4149 48.3846 63.4149 49.2313C63.4149 50.078 62.6195 50.7672 61.6422 50.7672ZM61.6424 59.7658H43.8248C43.143 59.8446 42.4839 59.5492 42.1203 59.057C41.7566 58.545 41.7566 57.8952 42.1203 57.4029C42.4839 56.891 43.143 56.6153 43.8248 56.6744H61.6424C62.5492 56.7531 63.2333 57.4226 63.2333 58.2299C63.2333 59.0156 62.5492 59.6871 61.6424 59.7658Z" fill="url(#paint2_linear_1_46590)"/>
<path d="M43.8246 38.7947V39.1947H44.2246V38.7947H43.8246ZM43.8246 38.775V38.375H43.4246V38.775H43.8246ZM43.8248 59.7658V59.3658H43.8017L43.7789 59.3685L43.8248 59.7658ZM61.6424 59.7658V60.1658H61.6598L61.677 60.1643L61.6424 59.7658ZM42.1203 59.057L41.7941 59.2886L41.7985 59.2946L42.1203 59.057ZM42.1203 57.4029L42.4421 57.6406L42.4464 57.6345L42.1203 57.4029ZM43.8248 56.6744L43.7902 57.0729L43.8075 57.0744H43.8248V56.6744ZM61.6424 56.6744L61.677 56.2759L61.6598 56.2744H61.6424V56.6744ZM44.2246 38.7947V38.775H43.4246V38.7947H44.2246ZM42.4519 40.3306C42.4519 39.7564 43.0106 39.1947 43.8246 39.1947V38.3947C42.6796 38.3947 41.6519 39.2114 41.6519 40.3306H42.4519ZM43.8246 41.4665C43.0106 41.4665 42.4519 40.9048 42.4519 40.3306H41.6519C41.6519 41.4499 42.6796 42.2665 43.8246 42.2665V41.4665ZM50.6176 41.4665H43.8246V42.2665H50.6176V41.4665ZM51.9925 40.309C51.9925 40.9076 51.4284 41.4665 50.6176 41.4665V42.2665C51.7657 42.2665 52.7925 41.4471 52.7925 40.309H51.9925ZM50.6176 39.175C51.4326 39.175 51.9925 39.7377 51.9925 40.309H52.7925C52.7925 39.1908 51.7615 38.375 50.6176 38.375V39.175ZM43.8246 39.175H50.6176V38.375H43.8246V39.175ZM43.8246 51.1672H61.6422V50.3672H43.8246V51.1672ZM41.6519 49.2313C41.6519 50.3505 42.6796 51.1672 43.8246 51.1672V50.3672C43.0106 50.3672 42.4519 49.8055 42.4519 49.2313H41.6519ZM43.8246 47.2934C42.6789 47.2934 41.6519 48.1127 41.6519 49.2313H42.4519C42.4519 48.6565 43.0113 48.0934 43.8246 48.0934V47.2934ZM61.6422 47.2934H43.8246V48.0934H61.6422V47.2934ZM63.8149 49.2313C63.8149 48.1124 62.7853 47.2934 61.6422 47.2934V48.0934C62.4536 48.0934 63.0149 48.6568 63.0149 49.2313H63.8149ZM61.6422 51.1672C62.7846 51.1672 63.8149 50.3508 63.8149 49.2313H63.0149C63.0149 49.8052 62.4543 50.3672 61.6422 50.3672V51.1672ZM43.8248 60.1658H61.6424V59.3658H43.8248V60.1658ZM41.7985 59.2946C42.2502 59.9061 43.0515 60.2578 43.8707 60.1632L43.7789 59.3685C43.2344 59.4314 42.7176 59.1924 42.442 58.8193L41.7985 59.2946ZM41.7985 57.1653C41.3286 57.8015 41.334 58.6407 41.7942 59.2886L42.4464 58.8253C42.1793 58.4493 42.1847 57.9889 42.442 57.6406L41.7985 57.1653ZM43.8593 56.2758C43.0561 56.2063 42.2508 56.5283 41.7942 57.1713L42.4464 57.6345C42.7169 57.2536 43.2298 57.0243 43.7902 57.0729L43.8593 56.2758ZM61.6424 56.2744H43.8248V57.0744H61.6424V56.2744ZM63.6333 58.2299C63.6333 57.1769 62.7502 56.3691 61.677 56.2759L61.6078 57.0729C62.3482 57.1372 62.8333 57.6683 62.8333 58.2299H63.6333ZM61.677 60.1643C62.7471 60.0714 63.6333 59.264 63.6333 58.2299H62.8333C62.8333 58.7672 62.3513 59.3028 61.6078 59.3673L61.677 60.1643Z" fill="url(#paint3_linear_1_46590)" mask="url(#path-5-inside-1_1_46590)"/>
</g>
<g filter="url(#filter3_i_1_46590)">
<path d="M58.408 55L57.12 45.2H58.954L59.906 53.712H60.158L61.39 45.2H64.582L65.814 53.712H66.066L67.018 45.2H68.852L67.564 55H64.372L63.112 46.292H62.86L61.6 55H58.408ZM73.3401 55.196C72.6494 55.196 72.0381 55.0513 71.5061 54.762C70.9834 54.4633 70.5728 54.048 70.2741 53.516C69.9848 52.9747 69.8401 52.34 69.8401 51.612V51.444C69.8401 50.716 69.9848 50.086 70.2741 49.554C70.5634 49.0127 70.9694 48.5973 71.4921 48.308C72.0148 48.0093 72.6214 47.86 73.3121 47.86C73.9934 47.86 74.5861 48.014 75.0901 48.322C75.5941 48.6207 75.9861 49.0407 76.2661 49.582C76.5461 50.114 76.6861 50.7347 76.6861 51.444V52.046H71.6321C71.6508 52.522 71.8281 52.9093 72.1641 53.208C72.5001 53.5067 72.9108 53.656 73.3961 53.656C73.8908 53.656 74.2548 53.5487 74.4881 53.334C74.7214 53.1193 74.8988 52.8813 75.0201 52.62L76.4621 53.376C76.3314 53.6187 76.1401 53.8847 75.8881 54.174C75.6454 54.454 75.3188 54.6967 74.9081 54.902C74.4974 55.098 73.9748 55.196 73.3401 55.196ZM71.6461 50.73H74.8941C74.8568 50.3287 74.6934 50.0067 74.4041 49.764C74.1241 49.5213 73.7554 49.4 73.2981 49.4C72.8221 49.4 72.4441 49.5213 72.1641 49.764C71.8841 50.0067 71.7114 50.3287 71.6461 50.73ZM82.4282 55.196C81.8028 55.196 81.3222 55.0887 80.9862 54.874C80.6502 54.6593 80.4028 54.4213 80.2442 54.16H79.9922V55H78.2562V45.2H80.0202V48.854H80.2722C80.3748 48.686 80.5102 48.5273 80.6782 48.378C80.8555 48.2287 81.0842 48.1073 81.3642 48.014C81.6535 47.9113 82.0082 47.86 82.4282 47.86C82.9882 47.86 83.5062 48 83.9822 48.28C84.4582 48.5507 84.8408 48.952 85.1302 49.484C85.4195 50.016 85.5642 50.66 85.5642 51.416V51.64C85.5642 52.396 85.4195 53.04 85.1302 53.572C84.8408 54.104 84.4582 54.51 83.9822 54.79C83.5062 55.0607 82.9882 55.196 82.4282 55.196ZM81.8962 53.656C82.4375 53.656 82.8902 53.4833 83.2542 53.138C83.6182 52.7833 83.8002 52.27 83.8002 51.598V51.458C83.8002 50.786 83.6182 50.2773 83.2542 49.932C82.8995 49.5773 82.4468 49.4 81.8962 49.4C81.3548 49.4 80.9022 49.5773 80.5382 49.932C80.1742 50.2773 79.9922 50.786 79.9922 51.458V51.598C79.9922 52.27 80.1742 52.7833 80.5382 53.138C80.9022 53.4833 81.3548 53.656 81.8962 53.656ZM90.4026 55V53.376H91.6906V46.824H90.4026V45.2H94.4346C95.7506 45.2 96.7493 45.536 97.4306 46.208C98.1213 46.8707 98.4666 47.86 98.4666 49.176V51.024C98.4666 52.34 98.1213 53.334 97.4306 54.006C96.7493 54.6687 95.7506 55 94.4346 55H90.4026ZM93.5386 53.32H94.4626C95.2093 53.32 95.7553 53.124 96.1006 52.732C96.4459 52.34 96.6186 51.7893 96.6186 51.08V49.12C96.6186 48.4013 96.4459 47.8507 96.1006 47.468C95.7553 47.076 95.2093 46.88 94.4626 46.88H93.5386V53.32ZM103.367 55.196C102.676 55.196 102.055 55.056 101.505 54.776C100.954 54.496 100.52 54.09 100.203 53.558C99.8855 53.026 99.7268 52.3867 99.7268 51.64V51.416C99.7268 50.6693 99.8855 50.03 100.203 49.498C100.52 48.966 100.954 48.56 101.505 48.28C102.055 48 102.676 47.86 103.367 47.86C104.057 47.86 104.678 48 105.229 48.28C105.779 48.56 106.213 48.966 106.531 49.498C106.848 50.03 107.007 50.6693 107.007 51.416V51.64C107.007 52.3867 106.848 53.026 106.531 53.558C106.213 54.09 105.779 54.496 105.229 54.776C104.678 55.056 104.057 55.196 103.367 55.196ZM103.367 53.628C103.908 53.628 104.356 53.4553 104.711 53.11C105.065 52.7553 105.243 52.2513 105.243 51.598V51.458C105.243 50.8047 105.065 50.3053 104.711 49.96C104.365 49.6053 103.917 49.428 103.367 49.428C102.825 49.428 102.377 49.6053 102.023 49.96C101.668 50.3053 101.491 50.8047 101.491 51.458V51.598C101.491 52.2513 101.668 52.7553 102.023 53.11C102.377 53.4553 102.825 53.628 103.367 53.628ZM111.897 55.196C111.225 55.196 110.614 55.056 110.063 54.776C109.522 54.496 109.092 54.09 108.775 53.558C108.458 53.026 108.299 52.382 108.299 51.626V51.43C108.299 50.674 108.458 50.03 108.775 49.498C109.092 48.966 109.522 48.56 110.063 48.28C110.614 48 111.225 47.86 111.897 47.86C112.56 47.86 113.129 47.9767 113.605 48.21C114.081 48.4433 114.464 48.7653 114.753 49.176C115.052 49.5773 115.248 50.0347 115.341 50.548L113.633 50.912C113.596 50.632 113.512 50.38 113.381 50.156C113.25 49.932 113.064 49.7547 112.821 49.624C112.588 49.4933 112.294 49.428 111.939 49.428C111.584 49.428 111.262 49.5073 110.973 49.666C110.693 49.8153 110.469 50.044 110.301 50.352C110.142 50.6507 110.063 51.0193 110.063 51.458V51.598C110.063 52.0367 110.142 52.41 110.301 52.718C110.469 53.0167 110.693 53.2453 110.973 53.404C111.262 53.5533 111.584 53.628 111.939 53.628C112.471 53.628 112.872 53.4927 113.143 53.222C113.423 52.942 113.6 52.578 113.675 52.13L115.383 52.536C115.262 53.0307 115.052 53.4833 114.753 53.894C114.464 54.2953 114.081 54.6127 113.605 54.846C113.129 55.0793 112.56 55.196 111.897 55.196ZM119.722 55.196C118.817 55.196 118.075 55 117.496 54.608C116.918 54.216 116.568 53.656 116.446 52.928L118.07 52.508C118.136 52.8347 118.243 53.0913 118.392 53.278C118.551 53.4647 118.742 53.6 118.966 53.684C119.2 53.7587 119.452 53.796 119.722 53.796C120.133 53.796 120.436 53.726 120.632 53.586C120.828 53.4367 120.926 53.2547 120.926 53.04C120.926 52.8253 120.833 52.662 120.646 52.55C120.46 52.4287 120.161 52.3307 119.75 52.256L119.358 52.186C118.873 52.0927 118.43 51.9667 118.028 51.808C117.627 51.64 117.305 51.4113 117.062 51.122C116.82 50.8327 116.698 50.4593 116.698 50.002C116.698 49.3113 116.95 48.784 117.454 48.42C117.958 48.0467 118.621 47.86 119.442 47.86C120.217 47.86 120.861 48.0327 121.374 48.378C121.888 48.7233 122.224 49.176 122.382 49.736L120.744 50.24C120.67 49.8853 120.516 49.6333 120.282 49.484C120.058 49.3347 119.778 49.26 119.442 49.26C119.106 49.26 118.85 49.3207 118.672 49.442C118.495 49.554 118.406 49.7127 118.406 49.918C118.406 50.142 118.5 50.31 118.686 50.422C118.873 50.5247 119.125 50.604 119.442 50.66L119.834 50.73C120.357 50.8233 120.828 50.9493 121.248 51.108C121.678 51.2573 122.014 51.4767 122.256 51.766C122.508 52.046 122.634 52.4287 122.634 52.914C122.634 53.642 122.368 54.2067 121.836 54.608C121.314 55 120.609 55.196 119.722 55.196Z" fill="black"/>
</g>
<path d="M58.408 55L57.9123 55.0652L57.9694 55.5H58.408V55ZM57.12 45.2V44.7H56.55L56.6243 45.2652L57.12 45.2ZM58.954 45.2L59.4509 45.1444L59.4012 44.7H58.954V45.2ZM59.906 53.712L59.4091 53.7676L59.4588 54.212H59.906V53.712ZM60.158 53.712V54.212H60.5908L60.6528 53.7836L60.158 53.712ZM61.39 45.2V44.7H60.9572L60.8952 45.1284L61.39 45.2ZM64.582 45.2L65.0768 45.1284L65.0148 44.7H64.582V45.2ZM65.814 53.712L65.3192 53.7836L65.3812 54.212H65.814V53.712ZM66.066 53.712V54.212H66.5132L66.5629 53.7676L66.066 53.712ZM67.018 45.2V44.7H66.5708L66.5211 45.1444L67.018 45.2ZM68.852 45.2L69.3477 45.2652L69.422 44.7H68.852V45.2ZM67.564 55V55.5H68.0026L68.0597 55.0652L67.564 55ZM64.372 55L63.8772 55.0716L63.9391 55.5H64.372V55ZM63.112 46.292L63.6068 46.2204L63.5449 45.792H63.112V46.292ZM62.86 46.292V45.792H62.4271L62.3652 46.2204L62.86 46.292ZM61.6 55V55.5H62.0329L62.0948 55.0716L61.6 55ZM58.9037 54.9348L57.6157 45.1348L56.6243 45.2652L57.9123 55.0652L58.9037 54.9348ZM57.12 45.7H58.954V44.7H57.12V45.7ZM58.4571 45.2556L59.4091 53.7676L60.4029 53.6564L59.4509 45.1444L58.4571 45.2556ZM59.906 54.212H60.158V53.212H59.906V54.212ZM60.6528 53.7836L61.8848 45.2716L60.8952 45.1284L59.6632 53.6404L60.6528 53.7836ZM61.39 45.7H64.582V44.7H61.39V45.7ZM64.0872 45.2716L65.3192 53.7836L66.3088 53.6404L65.0768 45.1284L64.0872 45.2716ZM65.814 54.212H66.066V53.212H65.814V54.212ZM66.5629 53.7676L67.5149 45.2556L66.5211 45.1444L65.5691 53.6564L66.5629 53.7676ZM67.018 45.7H68.852V44.7H67.018V45.7ZM68.3563 45.1348L67.0683 54.9348L68.0597 55.0652L69.3477 45.2652L68.3563 45.1348ZM67.564 54.5H64.372V55.5H67.564V54.5ZM64.8668 54.9284L63.6068 46.2204L62.6172 46.3636L63.8772 55.0716L64.8668 54.9284ZM63.112 45.792H62.86V46.792H63.112V45.792ZM62.3652 46.2204L61.1052 54.9284L62.0948 55.0716L63.3548 46.3636L62.3652 46.2204ZM61.6 54.5H58.408V55.5H61.6V54.5ZM71.5061 54.762L71.258 55.1962L71.2672 55.2012L71.5061 54.762ZM70.2741 53.516L69.833 53.7517L69.8381 53.7608L70.2741 53.516ZM70.2741 49.554L70.7133 49.7929L70.7151 49.7897L70.2741 49.554ZM71.4921 48.308L71.7343 48.7455L71.7402 48.7421L71.4921 48.308ZM75.0901 48.322L74.8293 48.7487L74.8352 48.7521L75.0901 48.322ZM76.2661 49.582L75.822 49.8117L75.8236 49.8149L76.2661 49.582ZM76.6861 52.046V52.546H77.1861V52.046H76.6861ZM71.6321 52.046V51.546H71.1121L71.1325 52.0656L71.6321 52.046ZM74.4881 53.334L74.1496 52.966L74.4881 53.334ZM75.0201 52.62L75.2523 52.1772L74.7875 51.9335L74.5666 52.4094L75.0201 52.62ZM76.4621 53.376L76.9023 53.6131L77.142 53.1679L76.6943 52.9332L76.4621 53.376ZM75.8881 54.174L75.511 53.8456L75.5102 53.8465L75.8881 54.174ZM74.9081 54.902L75.1235 55.3533L75.1317 55.3492L74.9081 54.902ZM71.6461 50.73L71.1526 50.6497L71.0581 51.23H71.6461V50.73ZM74.8941 50.73V51.23H75.4428L75.3919 50.6837L74.8941 50.73ZM74.4041 49.764L74.0766 50.1419L74.0828 50.1471L74.4041 49.764ZM73.3401 54.696C72.721 54.696 72.1939 54.5669 71.745 54.3228L71.2672 55.2012C71.8823 55.5358 72.5778 55.696 73.3401 55.696V54.696ZM71.7542 54.3279C71.3112 54.0748 70.965 53.7254 70.7101 53.2712L69.8381 53.7608C70.1805 54.3706 70.6556 54.8519 71.258 55.1961L71.7542 54.3279ZM70.7151 53.2803C70.4711 52.8239 70.3401 52.273 70.3401 51.612H69.3401C69.3401 52.407 69.4984 53.1255 69.8331 53.7517L70.7151 53.2803ZM70.3401 51.612V51.444H69.3401V51.612H70.3401ZM70.3401 51.444C70.3401 50.7827 70.4712 50.2381 70.7133 49.7929L69.8348 49.3151C69.4983 49.9339 69.3401 50.6493 69.3401 51.444H70.3401ZM70.7151 49.7897C70.9603 49.3309 71.2983 48.9868 71.7342 48.7454L71.2499 47.8706C70.6405 48.2079 70.1666 48.6944 69.8331 49.3183L70.7151 49.7897ZM71.7402 48.7421C72.1767 48.4926 72.6954 48.36 73.3121 48.36V47.36C72.5474 47.36 71.8528 47.526 71.244 47.8739L71.7402 48.7421ZM73.3121 48.36C73.9158 48.36 74.4153 48.4956 74.8294 48.7486L75.3508 47.8954C74.7569 47.5324 74.071 47.36 73.3121 47.36V48.36ZM74.8352 48.7521C75.2552 49.0011 75.5832 49.3501 75.822 49.8117L76.7102 49.3523C76.389 48.7313 75.9329 48.2403 75.345 47.8919L74.8352 48.7521ZM75.8236 49.8149C76.0596 50.2632 76.1861 50.8012 76.1861 51.444H77.1861C77.1861 50.6681 77.0326 49.9648 76.7085 49.3491L75.8236 49.8149ZM76.1861 51.444V52.046H77.1861V51.444H76.1861ZM76.6861 51.546H71.6321V52.546H76.6861V51.546ZM71.1325 52.0656C71.1561 52.6684 71.3877 53.1868 71.8319 53.5817L72.4963 52.8343C72.2685 52.6318 72.1454 52.3756 72.1317 52.0264L71.1325 52.0656ZM71.8319 53.5817C72.267 53.9685 72.7989 54.156 73.3961 54.156V53.156C73.0226 53.156 72.7331 53.0448 72.4963 52.8343L71.8319 53.5817ZM73.3961 54.156C73.9487 54.156 74.4611 54.0382 74.8266 53.702L74.1496 52.966C74.0484 53.0591 73.8328 53.156 73.3961 53.156V54.156ZM74.8266 53.702C75.1034 53.4474 75.322 53.1571 75.4736 52.8306L74.5666 52.4094C74.4755 52.6056 74.3395 52.7913 74.1496 52.966L74.8266 53.702ZM74.7879 53.0628L76.2299 53.8188L76.6943 52.9332L75.2523 52.1772L74.7879 53.0628ZM76.0219 53.1389C75.9141 53.339 75.7474 53.5743 75.511 53.8456L76.2651 54.5024C76.5328 54.1951 76.7487 53.8983 76.9023 53.6131L76.0219 53.1389ZM75.5102 53.8465C75.3196 54.0665 75.05 54.272 74.6845 54.4548L75.1317 55.3492C75.5875 55.1213 75.9713 54.8415 76.2659 54.5015L75.5102 53.8465ZM74.6927 54.4508C74.3704 54.6046 73.9278 54.696 73.3401 54.696V55.696C74.0217 55.696 74.6244 55.5914 75.1235 55.3532L74.6927 54.4508ZM71.6461 51.23H74.8941V50.23H71.6461V51.23ZM75.3919 50.6837C75.3433 50.161 75.1229 49.7143 74.7254 49.3809L74.0828 50.1471C74.2639 50.299 74.3702 50.4963 74.3962 50.7763L75.3919 50.6837ZM74.7316 49.3862C74.3407 49.0474 73.8465 48.9 73.2981 48.9V49.9C73.6644 49.9 73.9074 49.9952 74.0766 50.1418L74.7316 49.3862ZM73.2981 48.9C72.7369 48.9 72.2309 49.0444 71.8366 49.3862L72.4916 50.1418C72.6572 49.9983 72.9073 49.9 73.2981 49.9V48.9ZM71.8366 49.3862C71.4593 49.7131 71.2348 50.1448 71.1526 50.6497L72.1396 50.8103C72.1881 50.5125 72.3088 50.3002 72.4916 50.1418L71.8366 49.3862ZM80.9862 54.874L80.717 55.2953L80.9862 54.874ZM80.2442 54.16L80.6716 53.9005L80.5255 53.66H80.2442V54.16ZM79.9922 54.16V53.66H79.4922V54.16H79.9922ZM79.9922 55V55.5H80.4922V55H79.9922ZM78.2562 55H77.7562V55.5H78.2562V55ZM78.2562 45.2V44.7H77.7562V45.2H78.2562ZM80.0202 45.2H80.5202V44.7H80.0202V45.2ZM80.0202 48.854H79.5202V49.354H80.0202V48.854ZM80.2722 48.854V49.354H80.5526L80.6988 49.1147L80.2722 48.854ZM80.6782 48.378L80.356 47.9954L80.346 48.0043L80.6782 48.378ZM81.3642 48.014L81.5223 48.4884L81.5314 48.4852L81.3642 48.014ZM83.9822 48.28L83.7286 48.711L83.735 48.7146L83.9822 48.28ZM85.1302 49.484L85.5694 49.2451L85.1302 49.484ZM85.1302 53.572L85.5694 53.8109V53.8109L85.1302 53.572ZM83.9822 54.79L84.2293 55.2247L84.2357 55.221L83.9822 54.79ZM83.2542 53.138L83.5983 53.5008L83.6031 53.4961L83.2542 53.138ZM83.2542 49.932L82.9005 50.2857L82.91 50.2947L83.2542 49.932ZM80.5382 49.932L80.8823 50.2948L80.8871 50.2901L80.5382 49.932ZM80.5382 53.138L80.1892 53.4961L80.194 53.5007L80.5382 53.138ZM82.4282 54.696C81.8485 54.696 81.4774 54.5945 81.2554 54.4527L80.717 55.2953C81.167 55.5828 81.7572 55.696 82.4282 55.696V54.696ZM81.2554 54.4527C80.9649 54.2671 80.7804 54.0798 80.6716 53.9005L79.8168 54.4195C80.0253 54.7629 80.3354 55.0516 80.717 55.2953L81.2554 54.4527ZM80.2442 53.66H79.9922V54.66H80.2442V53.66ZM79.4922 54.16V55H80.4922V54.16H79.4922ZM79.9922 54.5H78.2562V55.5H79.9922V54.5ZM78.7562 55V45.2H77.7562V55H78.7562ZM78.2562 45.7H80.0202V44.7H78.2562V45.7ZM79.5202 45.2V48.854H80.5202V45.2H79.5202ZM80.0202 49.354H80.2722V48.354H80.0202V49.354ZM80.6988 49.1147C80.7724 48.9943 80.8741 48.8728 81.0104 48.7517L80.346 48.0043C80.1462 48.1819 79.9773 48.3777 79.8455 48.5933L80.6988 49.1147ZM81.0002 48.7605C81.118 48.6613 81.2866 48.5669 81.5223 48.4883L81.2061 47.5397C80.8818 47.6478 80.593 47.796 80.3561 47.9955L81.0002 48.7605ZM81.5314 48.4852C81.7513 48.4072 82.0456 48.36 82.4282 48.36V47.36C81.9707 47.36 81.5557 47.4155 81.197 47.5428L81.5314 48.4852ZM82.4282 48.36C82.9003 48.36 83.3306 48.4768 83.7287 48.711L84.2357 47.849C83.6817 47.5232 83.076 47.36 82.4282 47.36V48.36ZM83.735 48.7146C84.1216 48.9344 84.4413 49.2638 84.6909 49.7229L85.5694 49.2451C85.2404 48.6402 84.7948 48.1669 84.2293 47.8454L83.735 48.7146ZM84.6909 49.7229C84.9317 50.1655 85.0642 50.7231 85.0642 51.416H86.0642C86.0642 50.5969 85.9073 49.8665 85.5694 49.2451L84.6909 49.7229ZM85.0642 51.416V51.64H86.0642V51.416H85.0642ZM85.0642 51.64C85.0642 52.3329 84.9317 52.8905 84.6909 53.3331L85.5694 53.8109C85.9073 53.1895 86.0642 52.4591 86.0642 51.64H85.0642ZM84.6909 53.3331C84.4406 53.7934 84.119 54.1294 83.7287 54.359L84.2357 55.221C84.7973 54.8906 85.2411 54.4146 85.5694 53.8109L84.6909 53.3331ZM83.735 54.3554C83.3361 54.5822 82.9036 54.696 82.4282 54.696V55.696C83.0728 55.696 83.6762 55.5392 84.2293 55.2246L83.735 54.3554ZM81.8962 54.156C82.5545 54.156 83.1337 53.9415 83.5983 53.5007L82.91 52.7753C82.6467 53.0251 82.3205 53.156 81.8962 53.156V54.156ZM83.6031 53.4961C84.0919 53.0199 84.3002 52.3596 84.3002 51.598H83.3002C83.3002 52.1804 83.1445 52.5468 82.9052 52.7799L83.6031 53.4961ZM84.3002 51.598V51.458H83.3002V51.598H84.3002ZM84.3002 51.458C84.3002 50.6972 84.0922 50.0378 83.5983 49.5693L82.91 50.2947C83.1442 50.5168 83.3002 50.8748 83.3002 51.458H84.3002ZM83.6077 49.5784C83.1497 49.1204 82.5652 48.9 81.8962 48.9V49.9C82.3285 49.9 82.6493 50.0343 82.9006 50.2856L83.6077 49.5784ZM81.8962 48.9C81.2339 48.9 80.6531 49.1219 80.1892 49.5739L80.8871 50.2901C81.1512 50.0328 81.4758 49.9 81.8962 49.9V48.9ZM80.194 49.5693C79.7002 50.0378 79.4922 50.6972 79.4922 51.458H80.4922C80.4922 50.8748 80.6482 50.5168 80.8823 50.2947L80.194 49.5693ZM79.4922 51.458V51.598H80.4922V51.458H79.4922ZM79.4922 51.598C79.4922 52.3596 79.7005 53.0199 80.1892 53.4961L80.8871 52.7799C80.6479 52.5468 80.4922 52.1804 80.4922 51.598H79.4922ZM80.194 53.5007C80.6587 53.9415 81.2379 54.156 81.8962 54.156V53.156C81.4718 53.156 81.1457 53.0251 80.8823 52.7753L80.194 53.5007ZM90.4026 55H89.9026V55.5H90.4026V55ZM90.4026 53.376V52.876H89.9026V53.376H90.4026ZM91.6906 53.376V53.876H92.1906V53.376H91.6906ZM91.6906 46.824H92.1906V46.324H91.6906V46.824ZM90.4026 46.824H89.9026V47.324H90.4026V46.824ZM90.4026 45.2V44.7H89.9026V45.2H90.4026ZM97.4306 46.208L97.0795 46.564L97.0844 46.5688L97.4306 46.208ZM97.4306 54.006L97.7792 54.3644L97.7793 54.3644L97.4306 54.006ZM93.5386 53.32H93.0386V53.82H93.5386V53.32ZM96.1006 52.732L96.4758 53.0625L96.1006 52.732ZM96.1006 47.468L95.7254 47.7985L95.7294 47.803L96.1006 47.468ZM93.5386 46.88V46.38H93.0386V46.88H93.5386ZM90.9026 55V53.376H89.9026V55H90.9026ZM90.4026 53.876H91.6906V52.876H90.4026V53.876ZM92.1906 53.376V46.824H91.1906V53.376H92.1906ZM91.6906 46.324H90.4026V47.324H91.6906V46.324ZM90.9026 46.824V45.2H89.9026V46.824H90.9026ZM90.4026 45.7H94.4346V44.7H90.4026V45.7ZM94.4346 45.7C95.6694 45.7 96.5223 46.0144 97.0795 46.564L97.7817 45.852C96.9762 45.0576 95.8317 44.7 94.4346 44.7V45.7ZM97.0844 46.5688C97.6445 47.1061 97.9666 47.9437 97.9666 49.176H98.9666C98.9666 47.7763 98.598 46.6352 97.7768 45.8472L97.0844 46.5688ZM97.9666 49.176V51.024H98.9666V49.176H97.9666ZM97.9666 51.024C97.9666 52.2558 97.6447 53.1001 97.0819 53.6476L97.7793 54.3644C98.5979 53.5679 98.9666 52.4242 98.9666 51.024H97.9666ZM97.082 53.6476C96.525 54.1893 95.6712 54.5 94.4346 54.5V55.5C95.83 55.5 96.9735 55.148 97.7792 54.3644L97.082 53.6476ZM94.4346 54.5H90.4026V55.5H94.4346V54.5ZM93.5386 53.82H94.4626V52.82H93.5386V53.82ZM94.4626 53.82C95.2895 53.82 96.0004 53.6021 96.4758 53.0625L95.7254 52.4015C95.5101 52.6459 95.129 52.82 94.4626 52.82V53.82ZM96.4758 53.0625C96.9265 52.5509 97.1186 51.8672 97.1186 51.08H96.1186C96.1186 51.7115 95.9654 52.1291 95.7254 52.4015L96.4758 53.0625ZM97.1186 51.08V49.12H96.1186V51.08H97.1186ZM97.1186 49.12C97.1186 48.3264 96.9278 47.6383 96.4718 47.133L95.7294 47.803C95.9641 48.063 96.1186 48.4762 96.1186 49.12H97.1186ZM96.4758 47.1375C96.0004 46.5979 95.2895 46.38 94.4626 46.38V47.38C95.129 47.38 95.5101 47.5541 95.7254 47.7985L96.4758 47.1375ZM94.4626 46.38H93.5386V47.38H94.4626V46.38ZM93.0386 46.88V53.32H94.0386V46.88H93.0386ZM101.505 54.776L101.278 55.2217L101.505 54.776ZM100.203 49.498L100.632 49.7541L100.203 49.498ZM101.505 48.28L101.731 48.7257L101.505 48.28ZM105.229 48.28L105.002 48.7257L105.229 48.28ZM106.531 49.498L106.101 49.7541V49.7541L106.531 49.498ZM106.531 53.558L106.101 53.3019L106.531 53.558ZM105.229 54.776L105.002 54.3303L105.229 54.776ZM104.711 53.11L105.06 53.4683L105.064 53.4636L104.711 53.11ZM104.711 49.96L104.352 50.3089L104.362 50.3182L104.711 49.96ZM102.023 49.96L102.372 50.3183L102.376 50.3136L102.023 49.96ZM102.023 53.11L101.669 53.4636L101.674 53.4682L102.023 53.11ZM103.367 54.696C102.745 54.696 102.204 54.5706 101.731 54.3303L101.278 55.2217C101.907 55.5414 102.607 55.696 103.367 55.696V54.696ZM101.731 54.3303C101.265 54.0932 100.901 53.753 100.632 53.3019L99.7734 53.8141C100.139 54.427 100.643 54.8988 101.278 55.2217L101.731 54.3303ZM100.632 53.3019C100.37 52.8618 100.227 52.315 100.227 51.64H99.2268C99.2268 52.4583 99.4012 53.1902 99.7734 53.8141L100.632 53.3019ZM100.227 51.64V51.416H99.2268V51.64H100.227ZM100.227 51.416C100.227 50.7409 100.37 50.1942 100.632 49.7541L99.7734 49.2419C99.4012 49.8658 99.2268 50.5977 99.2268 51.416H100.227ZM100.632 49.7541C100.901 49.303 101.265 48.9628 101.731 48.7257L101.278 47.8343C100.643 48.1572 100.139 48.629 99.7734 49.2419L100.632 49.7541ZM101.731 48.7257C102.204 48.4854 102.745 48.36 103.367 48.36V47.36C102.607 47.36 101.907 47.5146 101.278 47.8343L101.731 48.7257ZM103.367 48.36C103.988 48.36 104.53 48.4854 105.002 48.7257L105.455 47.8343C104.827 47.5146 104.127 47.36 103.367 47.36V48.36ZM105.002 48.7257C105.468 48.9628 105.832 49.303 106.101 49.7541L106.96 49.2419C106.595 48.629 106.09 48.1572 105.455 47.8343L105.002 48.7257ZM106.101 49.7541C106.364 50.1942 106.507 50.7409 106.507 51.416H107.507C107.507 50.5977 107.332 49.8658 106.96 49.2419L106.101 49.7541ZM106.507 51.416V51.64H107.507V51.416H106.507ZM106.507 51.64C106.507 52.315 106.364 52.8618 106.101 53.3019L106.96 53.8141C107.332 53.1902 107.507 52.4583 107.507 51.64H106.507ZM106.101 53.3019C105.832 53.753 105.468 54.0932 105.002 54.3303L105.455 55.2217C106.09 54.8988 106.595 54.427 106.96 53.8141L106.101 53.3019ZM105.002 54.3303C104.53 54.5706 103.988 54.696 103.367 54.696V55.696C104.127 55.696 104.827 55.5414 105.455 55.2217L105.002 54.3303ZM103.367 54.128C104.025 54.128 104.602 53.9134 105.06 53.4682L104.362 52.7518C104.11 52.9973 103.791 53.128 103.367 53.128V54.128ZM105.064 53.4636C105.539 52.9892 105.743 52.3421 105.743 51.598H104.743C104.743 52.1605 104.592 52.5215 104.357 52.7564L105.064 53.4636ZM105.743 51.598V51.458H104.743V51.598H105.743ZM105.743 51.458C105.743 50.7147 105.539 50.0685 105.06 49.6018L104.362 50.3182C104.592 50.5421 104.743 50.8947 104.743 51.458H105.743ZM105.069 49.6112C104.619 49.1485 104.036 48.928 103.367 48.928V49.928C103.799 49.928 104.112 50.0621 104.353 50.3088L105.069 49.6112ZM103.367 48.928C102.704 48.928 102.126 49.1501 101.669 49.6064L102.376 50.3136C102.629 50.0606 102.946 49.928 103.367 49.928V48.928ZM101.674 49.6018C101.195 50.0685 100.991 50.7147 100.991 51.458H101.991C101.991 50.8947 102.142 50.5421 102.372 50.3182L101.674 49.6018ZM100.991 51.458V51.598H101.991V51.458H100.991ZM100.991 51.598C100.991 52.3421 101.195 52.9892 101.669 53.4636L102.376 52.7564C102.141 52.5215 101.991 52.1605 101.991 51.598H100.991ZM101.674 53.4682C102.131 53.9134 102.709 54.128 103.367 54.128V53.128C102.942 53.128 102.624 52.9973 102.372 52.7518L101.674 53.4682ZM110.063 54.776L109.833 55.2201L109.836 55.2217L110.063 54.776ZM108.775 49.498L109.204 49.7541L108.775 49.498ZM110.063 48.28L109.836 47.8343L109.833 47.8359L110.063 48.28ZM113.605 48.21L113.385 48.659L113.385 48.659L113.605 48.21ZM114.753 49.176L114.344 49.4641L114.352 49.4745L114.753 49.176ZM115.341 50.548L115.445 51.037L115.92 50.9359L115.833 50.4586L115.341 50.548ZM113.633 50.912L113.137 50.9781L113.209 51.5136L113.737 51.401L113.633 50.912ZM112.821 49.624L112.577 50.0603L112.584 50.0642L112.821 49.624ZM110.973 49.666L111.208 50.1072L111.213 50.1044L110.973 49.666ZM110.301 50.352L109.862 50.1126L109.86 50.1174L110.301 50.352ZM110.301 52.718L109.857 52.947L109.861 52.9551L109.865 52.9631L110.301 52.718ZM110.973 53.404L110.727 53.839L110.735 53.8438L110.744 53.8483L110.973 53.404ZM113.143 53.222L113.497 53.5756V53.5756L113.143 53.222ZM113.675 52.13L113.791 51.6436L113.27 51.5198L113.182 52.0478L113.675 52.13ZM115.383 52.536L115.869 52.6551L115.989 52.166L115.499 52.0496L115.383 52.536ZM114.753 53.894L114.349 53.5999L114.347 53.6016L114.753 53.894ZM111.897 54.696C111.297 54.696 110.764 54.5715 110.29 54.3303L109.836 55.2217C110.463 55.5405 111.153 55.696 111.897 55.696V54.696ZM110.293 54.3319C109.836 54.0954 109.475 53.7552 109.204 53.3019L108.346 53.8141C108.71 54.4248 109.208 54.8966 109.833 55.2201L110.293 54.3319ZM109.204 53.3019C108.943 52.8627 108.799 52.3117 108.799 51.626H107.799C107.799 52.4523 107.973 53.1893 108.346 53.8141L109.204 53.3019ZM108.799 51.626V51.43H107.799V51.626H108.799ZM108.799 51.43C108.799 50.7443 108.943 50.1933 109.204 49.7541L108.346 49.2419C107.973 49.8667 107.799 50.6037 107.799 51.43H108.799ZM109.204 49.7541C109.475 49.3008 109.836 48.9606 110.293 48.7241L109.833 47.8359C109.208 48.1594 108.71 48.6312 108.346 49.2419L109.204 49.7541ZM110.29 48.7257C110.764 48.4845 111.297 48.36 111.897 48.36V47.36C111.153 47.36 110.463 47.5155 109.836 47.8343L110.29 48.7257ZM111.897 48.36C112.502 48.36 112.992 48.4665 113.385 48.659L113.825 47.761C113.266 47.4868 112.617 47.36 111.897 47.36V48.36ZM113.385 48.659C113.79 48.8574 114.106 49.1258 114.344 49.464L115.162 48.888C114.821 48.4049 114.372 48.0292 113.825 47.761L113.385 48.659ZM114.352 49.4745C114.603 49.8114 114.769 50.1965 114.849 50.6374L115.833 50.4586C115.727 49.8728 115.501 49.3433 115.154 48.8775L114.352 49.4745ZM115.237 50.059L113.529 50.423L113.737 51.401L115.445 51.037L115.237 50.059ZM114.129 50.8459C114.083 50.5063 113.98 50.1901 113.813 49.9041L112.949 50.4079C113.044 50.5699 113.108 50.7577 113.137 50.9781L114.129 50.8459ZM113.813 49.9041C113.633 49.5955 113.377 49.3552 113.058 49.1838L112.584 50.0642C112.751 50.1541 112.868 50.2685 112.949 50.4079L113.813 49.9041ZM113.065 49.1877C112.737 49.0038 112.352 48.928 111.939 48.928V49.928C112.235 49.928 112.439 49.9828 112.577 50.0603L113.065 49.1877ZM111.939 48.928C111.507 48.928 111.101 49.0255 110.733 49.2276L111.213 50.1044C111.424 49.9892 111.662 49.928 111.939 49.928V48.928ZM110.738 49.2248C110.363 49.4249 110.072 49.7283 109.862 50.1126L110.74 50.5914C110.866 50.3597 111.023 50.2058 111.208 50.1072L110.738 49.2248ZM109.86 50.1174C109.653 50.5066 109.563 50.9611 109.563 51.458H110.563C110.563 51.0776 110.632 50.7947 110.743 50.5866L109.86 50.1174ZM109.563 51.458V51.598H110.563V51.458H109.563ZM109.563 51.598C109.563 52.0957 109.653 52.5518 109.857 52.947L110.746 52.489C110.632 52.2682 110.563 51.9777 110.563 51.598H109.563ZM109.865 52.9631C110.075 53.3358 110.362 53.6325 110.727 53.839L111.22 52.969C111.024 52.8581 110.863 52.6975 110.737 52.4729L109.865 52.9631ZM110.744 53.8483C111.11 54.0374 111.512 54.128 111.939 54.128V53.128C111.657 53.128 111.415 53.0692 111.202 52.9597L110.744 53.8483ZM111.939 54.128C112.551 54.128 113.101 53.9716 113.497 53.5756L112.79 52.8684C112.644 53.0138 112.391 53.128 111.939 53.128V54.128ZM113.497 53.5756C113.861 53.2114 114.079 52.7473 114.168 52.2122L113.182 52.0478C113.122 52.4087 112.985 52.6726 112.79 52.8684L113.497 53.5756ZM113.559 52.6164L115.267 53.0224L115.499 52.0496L113.791 51.6436L113.559 52.6164ZM114.897 52.4169C114.792 52.8487 114.609 53.2419 114.349 53.5999L115.157 54.1881C115.494 53.7248 115.732 53.2126 115.869 52.6551L114.897 52.4169ZM114.347 53.6016C114.11 53.9316 113.793 54.1972 113.385 54.397L113.825 55.295C114.369 55.0281 114.818 54.6591 115.159 54.1864L114.347 53.6016ZM113.385 54.397C112.992 54.5895 112.502 54.696 111.897 54.696V55.696C112.617 55.696 113.266 55.5692 113.825 55.295L113.385 54.397ZM117.496 54.608L117.777 54.194L117.496 54.608ZM116.446 52.928L116.321 52.4439L115.878 52.5586L115.953 53.0102L116.446 52.928ZM118.07 52.508L118.56 52.4099L118.457 51.8916L117.945 52.0239L118.07 52.508ZM118.392 53.278L118.002 53.5903L118.006 53.5962L118.011 53.6018L118.392 53.278ZM118.966 53.684L118.791 54.1522L118.802 54.1565L118.814 54.1602L118.966 53.684ZM120.632 53.586L120.923 53.9929L120.929 53.9884L120.935 53.9837L120.632 53.586ZM120.646 52.55L120.374 52.9692L120.381 52.9741L120.389 52.9787L120.646 52.55ZM119.75 52.256L119.84 51.7641L119.838 51.7638L119.75 52.256ZM119.358 52.186L119.264 52.677L119.27 52.6782L119.358 52.186ZM118.028 51.808L117.835 52.2693L117.844 52.273L118.028 51.808ZM117.062 51.122L116.679 51.4433L117.062 51.122ZM117.454 48.42L117.747 48.8254L117.752 48.8218L117.454 48.42ZM121.374 48.378L121.095 48.7929V48.7929L121.374 48.378ZM122.382 49.736L122.529 50.2139L122.997 50.0701L122.863 49.5997L122.382 49.736ZM120.744 50.24L120.255 50.343L120.368 50.879L120.891 50.7179L120.744 50.24ZM120.282 49.484L120.005 49.9001L120.013 49.9051L120.282 49.484ZM118.672 49.442L118.939 49.8647L118.947 49.8598L118.955 49.8547L118.672 49.442ZM118.686 50.422L118.429 50.8507L118.437 50.8556L118.445 50.8601L118.686 50.422ZM119.442 50.66L119.53 50.1678L119.529 50.1676L119.442 50.66ZM121.248 51.108L121.071 51.5759L121.084 51.5802L121.248 51.108ZM122.256 51.766L121.873 52.0873L121.879 52.094L121.885 52.1005L122.256 51.766ZM121.836 54.608L122.136 55.008L122.137 55.0072L121.836 54.608ZM119.722 54.696C118.888 54.696 118.251 54.5155 117.777 54.194L117.216 55.022C117.899 55.4845 118.746 55.696 119.722 55.696V54.696ZM117.777 54.194C117.318 53.8835 117.04 53.4472 116.939 52.8458L115.953 53.0102C116.095 53.8648 116.517 54.5485 117.216 55.022L117.777 54.194ZM116.571 53.4121L118.195 52.9921L117.945 52.0239L116.321 52.4439L116.571 53.4121ZM117.58 52.6061C117.655 52.982 117.787 53.3216 118.002 53.5903L118.783 52.9657C118.699 52.8611 118.616 52.6873 118.56 52.4099L117.58 52.6061ZM118.011 53.6018C118.224 53.8517 118.485 54.0376 118.791 54.1522L119.142 53.2158C118.999 53.1624 118.878 53.0777 118.773 52.9542L118.011 53.6018ZM118.814 54.1602C119.101 54.2522 119.405 54.296 119.722 54.296V53.296C119.498 53.296 119.298 53.2651 119.119 53.2078L118.814 54.1602ZM119.722 54.296C120.171 54.296 120.601 54.2229 120.923 53.9929L120.342 53.1791C120.272 53.2291 120.095 53.296 119.722 53.296V54.296ZM120.935 53.9837C121.234 53.7557 121.426 53.4352 121.426 53.04H120.426C120.426 53.0741 120.422 53.1176 120.329 53.1883L120.935 53.9837ZM121.426 53.04C121.426 52.6467 121.238 52.3221 120.903 52.1213L120.389 52.9787C120.405 52.9886 120.414 52.9962 120.418 53.0001C120.422 53.0038 120.422 53.0053 120.422 53.0046C120.422 53.0039 120.422 53.0046 120.423 53.0085C120.424 53.0127 120.426 53.0226 120.426 53.04H121.426ZM120.919 52.1308C120.647 51.9541 120.269 51.842 119.84 51.7641L119.661 52.7479C120.053 52.8193 120.272 52.9032 120.374 52.9692L120.919 52.1308ZM119.838 51.7638L119.446 51.6938L119.27 52.6782L119.662 52.7482L119.838 51.7638ZM119.453 51.695C118.994 51.6067 118.581 51.4887 118.212 51.343L117.844 52.273C118.278 52.4446 118.752 52.5786 119.264 52.677L119.453 51.695ZM118.221 51.3468C117.882 51.2049 117.629 51.0202 117.445 50.8007L116.679 51.4433C116.98 51.8025 117.371 52.0751 117.835 52.2692L118.221 51.3468ZM117.445 50.8007C117.293 50.6194 117.198 50.3676 117.198 50.002H116.198C116.198 50.551 116.346 51.046 116.679 51.4433L117.445 50.8007ZM117.198 50.002C117.198 49.4512 117.389 49.0839 117.747 48.8253L117.161 48.0147C116.511 48.4841 116.198 49.1714 116.198 50.002H117.198ZM117.752 48.8218C118.146 48.5295 118.695 48.36 119.442 48.36V47.36C118.547 47.36 117.77 47.5639 117.157 48.0182L117.752 48.8218ZM119.442 48.36C120.143 48.36 120.683 48.5156 121.095 48.7929L121.653 47.9631C121.039 47.5498 120.291 47.36 119.442 47.36V48.36ZM121.095 48.7929C121.517 49.0767 121.777 49.4336 121.901 49.8723L122.863 49.5997C122.67 48.9184 122.258 48.37 121.653 47.9631L121.095 48.7929ZM122.235 49.2581L120.597 49.7621L120.891 50.7179L122.529 50.2139L122.235 49.2581ZM121.233 50.137C121.14 49.6933 120.93 49.3048 120.552 49.0629L120.013 49.9051C120.101 49.9618 120.199 50.0774 120.255 50.343L121.233 50.137ZM120.56 49.068C120.235 48.8517 119.852 48.76 119.442 48.76V49.76C119.704 49.76 119.881 49.8176 120.005 49.9L120.56 49.068ZM119.442 48.76C119.058 48.76 118.685 48.8273 118.39 49.0293L118.955 49.8547C119.014 49.814 119.154 49.76 119.442 49.76V48.76ZM118.405 49.0193C118.087 49.2205 117.906 49.5367 117.906 49.918H118.906C118.906 49.9028 118.908 49.8943 118.909 49.8911C118.909 49.8881 118.91 49.8879 118.909 49.8889C118.909 49.8898 118.909 49.8887 118.912 49.8852C118.916 49.8816 118.924 49.8743 118.939 49.8647L118.405 49.0193ZM117.906 49.918C117.906 50.3114 118.086 50.6452 118.429 50.8507L118.943 49.9933C118.928 49.9842 118.921 49.9773 118.917 49.9739C118.914 49.9708 118.913 49.9693 118.913 49.9692C118.913 49.969 118.912 49.9665 118.91 49.9597C118.908 49.9526 118.906 49.9393 118.906 49.918H117.906ZM118.445 50.8601C118.698 50.9991 119.009 51.0912 119.355 51.1524L119.529 50.1676C119.241 50.1168 119.048 50.0503 118.927 49.9839L118.445 50.8601ZM119.354 51.1522L119.746 51.2222L119.922 50.2378L119.53 50.1678L119.354 51.1522ZM119.746 51.2222C120.244 51.3111 120.685 51.4297 121.072 51.5757L121.425 50.6403C120.971 50.469 120.47 50.3356 119.922 50.2378L119.746 51.2222ZM121.084 51.5802C121.445 51.706 121.699 51.88 121.873 52.0873L122.639 51.4447C122.328 51.0733 121.91 50.8087 121.412 50.6358L121.084 51.5802ZM121.885 52.1005C122.032 52.2646 122.134 52.5155 122.134 52.914H123.134C123.134 52.3418 122.984 51.8274 122.628 51.4315L121.885 52.1005ZM122.134 52.914C122.134 53.5019 121.929 53.9116 121.535 54.2088L122.137 55.0072C122.807 54.5017 123.134 53.7821 123.134 52.914H122.134ZM121.536 54.208C121.126 54.5154 120.539 54.696 119.722 54.696V55.696C120.679 55.696 121.501 55.4846 122.136 55.008L121.536 54.208Z" fill="black"/>
<defs>
<filter id="filter0_f_1_46590" x="0.868347" y="0.229858" width="79.4086" height="79.2196" filterUnits="userSpaceOnUse" color-interpolation-filters="sRGB">
<feFlood flood-opacity="0" result="BackgroundImageFix"/>
<feBlend mode="normal" in="SourceGraphic" in2="BackgroundImageFix" result="shape"/>
<feGaussianBlur stdDeviation="13.5" result="effect1_foregroundBlur_1_46590"/>
</filter>
<filter id="filter1_b_1_46590" x="7.27962" y="4.61792" width="90.9079" height="89.3821" filterUnits="userSpaceOnUse" color-interpolation-filters="sRGB">
<feFlood flood-opacity="0" result="BackgroundImageFix"/>
<feGaussianBlur in="BackgroundImageFix" stdDeviation="12"/>
<feComposite in2="SourceAlpha" operator="in" result="effect1_backgroundBlur_1_46590"/>
<feBlend mode="normal" in="SourceGraphic" in2="effect1_backgroundBlur_1_46590" result="shape"/>
</filter>
<filter id="filter2_bd_1_46590" x="26.8475" y="23.775" width="51.5674" height="51.0034" filterUnits="userSpaceOnUse" color-interpolation-filters="sRGB">
<feFlood flood-opacity="0" result="BackgroundImageFix"/>
<feGaussianBlur in="BackgroundImageFix" stdDeviation="7.5"/>
<feComposite in2="SourceAlpha" operator="in" result="effect1_backgroundBlur_1_46590"/>
<feColorMatrix in="SourceAlpha" type="matrix" values="0 0 0 0 0 0 0 0 0 0 0 0 0 0 0 0 0 0 127 0" result="hardAlpha"/>
<feOffset dx="5" dy="5"/>
<feGaussianBlur stdDeviation="5"/>
<feColorMatrix type="matrix" values="0 0 0 0 0.577356 0 0 0 0 0.359375 0 0 0 0 0.9375 0 0 0 0.5 0"/>
<feBlend mode="normal" in2="effect1_backgroundBlur_1_46590" result="effect2_dropShadow_1_46590"/>
<feBlend mode="normal" in="SourceGraphic" in2="effect2_dropShadow_1_46590" result="shape"/>
</filter>
<filter id="filter3_i_1_46590" x="57.12" y="45.2" width="65.5142" height="13.9961" filterUnits="userSpaceOnUse" color-interpolation-filters="sRGB">
<feFlood flood-opacity="0" result="BackgroundImageFix"/>
<feBlend mode="normal" in="SourceGraphic" in2="BackgroundImageFix" result="shape"/>
<feColorMatrix in="SourceAlpha" type="matrix" values="0 0 0 0 0 0 0 0 0 0 0 0 0 0 0 0 0 0 127 0" result="hardAlpha"/>
<feOffset dy="4"/>
<feGaussianBlur stdDeviation="2"/>
<feComposite in2="hardAlpha" operator="arithmetic" k2="-1" k3="1"/>
<feColorMatrix type="matrix" values="0 0 0 0 0 0 0 0 0 0 0 0 0 0 0 0 0 0 0.25 0"/>
<feBlend mode="normal" in2="shape" result="effect1_innerShadow_1_46590"/>
</filter>
<linearGradient id="paint0_linear_1_46590" x1="35.757" y1="21.5868" x2="44.7383" y2="60.273" gradientUnits="userSpaceOnUse">
<stop stop-color="#BC94FF"/>
<stop offset="1" stop-color="#9F66FF"/>
</linearGradient>
<linearGradient id="paint1_linear_1_46590" x1="38.7915" y1="34.206" x2="63.6955" y2="66.2453" gradientUnits="userSpaceOnUse">
<stop stop-color="white" stop-opacity="0.25"/>
<stop offset="1" stop-color="white" stop-opacity="0"/>
</linearGradient>
<linearGradient id="paint2_linear_1_46590" x1="61.8858" y1="42.5678" x2="37.8632" y2="43.3721" gradientUnits="userSpaceOnUse">
<stop stop-color="white"/>
<stop offset="1" stop-color="white" stop-opacity="0.2"/>
</linearGradient>
<linearGradient id="paint3_linear_1_46590" x1="45.2807" y1="41.222" x2="58.5997" y2="58.1607" gradientUnits="userSpaceOnUse">
<stop stop-color="white" stop-opacity="0.25"/>
<stop offset="1" stop-color="white" stop-opacity="0"/>
</linearGradient>
</defs>
</svg>
